<?xml version="1.0" standalone="no"?>
<!DOCTYPE svg PUBLIC "-//W3C//DTD SVG 20010904//EN"
 "http://www.w3.org/TR/2001/REC-SVG-20010904/DTD/svg10.dtd">
<svg version="1.0" xmlns="http://www.w3.org/2000/svg"
 width="700.000000pt" height="700.000000pt" viewBox="0 0 700.000000 700.000000"
 preserveAspectRatio="xMidYMid meet">
<metadata>
Created by potrace 1.11, written by Peter Selinger 2001-2013
</metadata>
<g transform="translate(0.000000,700.000000) scale(0.100000,-0.100000)"
fill="#000000" stroke="none">
<path d="M3700 4850 l0 -80 159 0 c136 0 162 -2 180 -17 14 -11 42 -75 76
-168 30 -82 55 -151 55 -153 0 -1 -316 -1 -702 0 l-703 3 -37 75 c-20 41 -37
78 -37 83 -1 4 52 7 118 7 125 0 175 11 191 40 16 30 12 76 -9 101 l-19 24
-336 3 -336 3 0 -86 0 -85 104 0 103 0 58 -125 58 -125 -46 -97 c-25 -54 -77
-164 -115 -244 l-70 -146 -73 19 c-322 83 -674 -42 -865 -309 -106 -147 -159
-315 -157 -498 1 -136 25 -235 87 -360 84 -168 198 -281 371 -365 168 -81 324
-105 494 -76 239 42 439 176 566 381 52 83 100 210 112 295 l8 55 200 5 c110
3 206 9 213 13 7 5 189 210 404 455 216 246 426 484 467 530 l75 83 43 -122
c24 -67 43 -127 43 -133 0 -6 -24 -24 -53 -39 -76 -41 -170 -119 -227 -190
-64 -80 -135 -220 -161 -322 -29 -112 -29 -290 0 -400 44 -167 145 -328 271
-433 78 -64 237 -143 340 -168 104 -26 287 -24 391 4 537 144 782 747 498
1229 -51 87 -190 222 -284 277 -157 91 -327 128 -508 107 -60 -6 -111 -10
-112 -9 -1 2 -73 201 -160 443 -86 242 -163 452 -171 466 -20 41 -74 90 -119
110 -34 16 -67 19 -212 19 l-173 0 0 -80z m518 -590 c-4 -13 -880 -1010 -887
-1010 -6 0 -481 1000 -481 1013 0 4 309 7 686 7 429 0 684 -4 682 -10z m-1307
-510 c105 -223 209 -442 230 -487 l38 -83 -122 0 -123 0 -11 63 c-33 189 -160
390 -320 504 -35 25 -62 51 -60 57 15 37 171 356 173 353 2 -1 89 -185 195
-407z m-658 -24 c32 -7 59 -15 61 -17 2 -2 -59 -134 -135 -294 -76 -159 -139
-303 -139 -318 0 -41 15 -63 51 -76 21 -7 145 -11 355 -11 178 0 324 -3 324
-7 -1 -35 -37 -149 -67 -211 -55 -113 -177 -234 -293 -291 -194 -95 -399 -95
-590 1 -216 108 -360 341 -360 583 0 295 206 560 492 635 87 23 219 25 301 6z
m2702 -23 c126 -47 212 -109 297 -214 101 -127 143 -259 135 -434 -5 -116 -16
-162 -71 -275 -43 -91 -176 -223 -273 -273 -259 -134 -559 -90 -764 113 -303
300 -252 787 107 1016 31 20 57 34 58 32 2 -1 52 -140 112 -307 64 -180 116
-311 128 -322 26 -25 81 -24 106 1 12 12 20 33 20 54 0 19 -47 166 -105 326
-58 161 -105 296 -105 301 0 14 42 18 160 14 98 -2 127 -7 195 -32z m-2439
-99 c63 -51 109 -101 150 -162 39 -57 94 -197 94 -237 l0 -25 -256 0 c-141 0
-254 4 -252 9 13 35 213 451 217 451 2 0 24 -16 47 -36z"/>
</g>
</svg>
