<svg xmlns="http://www.w3.org/2000/svg" style="isolation:isolate" viewBox="793.5 248.5 389 545"><defs><clipPath id="a"><path d="M793.5 248.5h389v545h-389z"/></clipPath></defs><g clip-path="url(#a)"><path fill="#fff" d="M845.165 257.5h285.67c23.547 0 42.665 19.118 42.665 42.665v441.67c0 23.547-19.118 42.665-42.665 42.665h-285.67c-23.547 0-42.665-19.118-42.665-42.665v-441.67c0-23.547 19.118-42.665 42.665-42.665z"/><path fill="none" stroke="#006c2b" stroke-linecap="square" stroke-miterlimit="2" stroke-width="18" d="M845.165 257.5h285.67c23.547 0 42.665 19.118 42.665 42.665v441.67c0 23.547-19.118 42.665-42.665 42.665h-285.67c-23.547 0-42.665-19.118-42.665-42.665v-441.67c0-23.547 19.118-42.665 42.665-42.665z"/><circle cx="988" cy="452" r="116.5" fill="#FFF" stroke="#006C2B" stroke-linecap="square" stroke-miterlimit="3" stroke-width="10" /><path fill="#006C2B" d="M975.354 609.52v7.872h-13.651c-1.71 0-3.274 1.051-3.853 2.68l-4.69 13.065h65.911l3.769-7.872h-11.725c-2.148-.014-3.852-1.763-3.852-3.936s1.704-3.923 3.852-3.937h30.15v7.873h-9.799l-5.611 11.809 10.888 22.947c4.04-1.423 8.37-2.261 12.897-2.261 21.462 0 38.86 17.398 38.86 38.86s-17.398 38.86-38.86 38.86c-20.291 0-36.936-15.591-38.692-35.426h-17.337c-1.158 0-2.336-.545-3.098-1.424l-43.216-49.245-4.355 12.144c13.154 6.227 22.278 19.571 22.278 35.091 0 21.462-17.398 38.86-38.86 38.86s-38.86-17.398-38.86-38.86 17.398-38.86 38.86-38.86c3.204 0 6.318.441 9.296 1.172l14.824-41.288c1.752-4.882 6.345-8.124 11.474-8.124h13.4zm39.949 31.49h-64.991l42.211 48.072 22.78-48.072zm6.197 5.109l-21.775 45.978h11.306c1.429-12.234 8.592-22.756 18.677-28.81l-8.208-17.168zm28.14 19.681c-3.285 0-6.411.556-9.38 1.507l12.898 27.219c.565 1.201.455 2.556-.252 3.685-.699 1.122-1.945 1.843-3.266 1.843h-30.652c1.694 15.419 14.781 27.386 30.652 27.386 17.021 0 30.82-13.799 30.82-30.82s-13.799-30.82-30.82-30.82zm-123.28 0c-17.021 0-30.82 13.799-30.82 30.82s13.799 30.82 30.82 30.82 30.82-13.799 30.82-30.82c0-12.026-6.955-22.391-17.001-27.47l-10.134 28.307c-.749 2.023-3.019 3.005-5.025 2.262-1.975-.735-2.932-2.931-2.261-4.942l10.133-28.307c-2.111-.457-4.284-.67-6.532-.67zm106.781 4.774c-7.404 4.699-12.656 12.474-13.986 21.523h24.204l-10.218-21.523zM984.813 466.192v16.407h-12.032v20.713h-20.644v-20.713H909.48v-14.698l43.819-64.531h19.482v62.822h12.032zm-56.739 0h24.063v-16.953q0-4.238.342-12.304.341-8.067.546-9.366h-.546q-2.53 5.606-6.084 10.938l-18.321 27.685zm100.899-26.728q14.492 0 23.071 8.135 8.579 8.134 8.579 22.285 0 16.748-10.322 25.771-10.322 9.024-29.531 9.024-16.68 0-26.934-5.401v-18.252q5.4 2.871 12.578 4.683 7.178 1.812 13.604 1.812 19.345 0 19.345-15.86 0-15.107-20.029-15.107-3.623 0-7.998.717-4.375.718-7.109 1.539l-8.409-4.512 3.76-50.928h54.209v17.91h-35.683l-1.846 19.619 2.392-.478q4.17-.957 10.323-.957z"/></g></svg>