<svg xmlns="http://www.w3.org/2000/svg" style="isolation:isolate" viewBox="793.5 248.5 389 545"><defs><clipPath id="a"><path d="M793.5 248.5h389v545h-389z"/></clipPath></defs><g clip-path="url(#a)"><path fill="#fff" d="M845.165 257.5h285.67c23.547 0 42.665 19.118 42.665 42.665v441.67c0 23.547-19.118 42.665-42.665 42.665h-285.67c-23.547 0-42.665-19.118-42.665-42.665v-441.67c0-23.547 19.118-42.665 42.665-42.665z"/><path fill="none" stroke="#006c2b" stroke-linecap="square" stroke-miterlimit="2" stroke-width="18" d="M845.165 257.5h285.67c23.547 0 42.665 19.118 42.665 42.665v441.67c0 23.547-19.118 42.665-42.665 42.665h-285.67c-23.547 0-42.665-19.118-42.665-42.665v-441.67c0-23.547 19.118-42.665 42.665-42.665z"/><circle cx="988" cy="452" r="116.5" fill="#FFF" stroke="#006C2B" stroke-linecap="square" stroke-miterlimit="3" stroke-width="10" /><path fill="#006C2B" d="M975.354 609.52v7.872h-13.651c-1.71 0-3.274 1.051-3.853 2.68l-4.69 13.065h65.911l3.769-7.872h-11.725c-2.148-.014-3.852-1.763-3.852-3.936s1.704-3.923 3.852-3.937h30.15v7.873h-9.799l-5.611 11.809 10.888 22.947c4.04-1.423 8.37-2.261 12.897-2.261 21.462 0 38.86 17.398 38.86 38.86s-17.398 38.86-38.86 38.86c-20.291 0-36.936-15.591-38.692-35.426h-17.337c-1.158 0-2.336-.545-3.098-1.424l-43.216-49.245-4.355 12.144c13.154 6.227 22.278 19.571 22.278 35.091 0 21.462-17.398 38.86-38.86 38.86s-38.86-17.398-38.86-38.86 17.398-38.86 38.86-38.86c3.204 0 6.318.441 9.296 1.172l14.824-41.288c1.752-4.882 6.345-8.124 11.474-8.124h13.4zm39.949 31.49h-64.991l42.211 48.072 22.78-48.072zm6.197 5.109l-21.775 45.978h11.306c1.429-12.234 8.592-22.756 18.677-28.81l-8.208-17.168zm28.14 19.681c-3.285 0-6.411.556-9.38 1.507l12.898 27.219c.565 1.201.455 2.556-.252 3.685-.699 1.122-1.945 1.843-3.266 1.843h-30.652c1.694 15.419 14.781 27.386 30.652 27.386 17.021 0 30.82-13.799 30.82-30.82s-13.799-30.82-30.82-30.82zm-123.28 0c-17.021 0-30.82 13.799-30.82 30.82s13.799 30.82 30.82 30.82 30.82-13.799 30.82-30.82c0-12.026-6.955-22.391-17.001-27.47l-10.134 28.307c-.749 2.023-3.019 3.005-5.025 2.262-1.975-.735-2.932-2.931-2.261-4.942l10.133-28.307c-2.111-.457-4.284-.67-6.532-.67zm106.781 4.774c-7.404 4.699-12.656 12.474-13.986 21.523h24.204l-10.218-21.523zM984.813 466.192v16.407h-12.032v20.713h-20.644v-20.713H909.48v-14.698l43.819-64.531h19.482v62.822h12.032zm-56.739 0h24.063v-16.953q0-4.238.342-12.304.341-8.067.546-9.366h-.546q-2.53 5.606-6.084 10.938l-18.321 27.685zm63.848-5.332q0-29.668 12.544-44.16 12.544-14.492 37.563-14.492 8.545 0 13.399 1.025v16.885q-6.084-1.367-12.032-1.367-10.869 0-17.739 3.281-6.87 3.281-10.288 9.707t-4.033 18.252h.889q6.767-11.621 21.67-11.621 13.398 0 20.986 8.408 7.588 8.409 7.588 23.243 0 15.996-9.024 25.327-9.023 9.331-25.019 9.331-11.074 0-19.312-5.127-8.237-5.127-12.715-14.971-4.477-9.844-4.477-23.721zm36.094 26.934q6.767 0 10.39-4.546t3.623-12.954q0-7.315-3.383-11.519-3.384-4.204-10.22-4.204-6.426 0-10.972 4.17-4.546 4.17-4.546 9.707 0 8.135 4.273 13.74 4.272 5.606 10.835 5.606z"/></g></svg>