<svg xmlns="http://www.w3.org/2000/svg" style="isolation:isolate" viewBox="793.5 248.5 389 545"><defs><clipPath id="a"><path d="M793.5 248.5h389v545h-389z"/></clipPath></defs><g clip-path="url(#a)"><path fill="#fff" d="M845.165 257.5h285.67c23.547 0 42.665 19.118 42.665 42.665v441.67c0 23.547-19.118 42.665-42.665 42.665h-285.67c-23.547 0-42.665-19.118-42.665-42.665v-441.67c0-23.547 19.118-42.665 42.665-42.665z"/><path fill="none" stroke="#006c2b" stroke-linecap="square" stroke-miterlimit="2" stroke-width="18" d="M845.165 257.5h285.67c23.547 0 42.665 19.118 42.665 42.665v441.67c0 23.547-19.118 42.665-42.665 42.665h-285.67c-23.547 0-42.665-19.118-42.665-42.665v-441.67c0-23.547 19.118-42.665 42.665-42.665z"/><circle cx="988" cy="452" r="116.5" fill="#FFF" stroke="#006C2B" stroke-linecap="square" stroke-miterlimit="3" stroke-width="10" /><path fill="#006C2B" d="M975.354 609.52v7.872h-13.651c-1.71 0-3.274 1.051-3.853 2.68l-4.69 13.065h65.911l3.769-7.872h-11.725c-2.148-.014-3.852-1.763-3.852-3.936s1.704-3.923 3.852-3.937h30.15v7.873h-9.799l-5.611 11.809 10.888 22.947c4.04-1.423 8.37-2.261 12.897-2.261 21.462 0 38.86 17.398 38.86 38.86s-17.398 38.86-38.86 38.86c-20.291 0-36.936-15.591-38.692-35.426h-17.337c-1.158 0-2.336-.545-3.098-1.424l-43.216-49.245-4.355 12.144c13.154 6.227 22.278 19.571 22.278 35.091 0 21.462-17.398 38.86-38.86 38.86s-38.86-17.398-38.86-38.86 17.398-38.86 38.86-38.86c3.204 0 6.318.441 9.296 1.172l14.824-41.288c1.752-4.882 6.345-8.124 11.474-8.124h13.4zm39.949 31.49h-64.991l42.211 48.072 22.78-48.072zm6.197 5.109l-21.775 45.978h11.306c1.429-12.234 8.592-22.756 18.677-28.81l-8.208-17.168zm28.14 19.681c-3.285 0-6.411.556-9.38 1.507l12.898 27.219c.565 1.201.455 2.556-.252 3.685-.699 1.122-1.945 1.843-3.266 1.843h-30.652c1.694 15.419 14.781 27.386 30.652 27.386 17.021 0 30.82-13.799 30.82-30.82s-13.799-30.82-30.82-30.82zm-123.28 0c-17.021 0-30.82 13.799-30.82 30.82s13.799 30.82 30.82 30.82 30.82-13.799 30.82-30.82c0-12.026-6.955-22.391-17.001-27.47l-10.134 28.307c-.749 2.023-3.019 3.005-5.025 2.262-1.975-.735-2.932-2.931-2.261-4.942l10.133-28.307c-2.111-.457-4.284-.67-6.532-.67zm106.781 4.774c-7.404 4.699-12.656 12.474-13.986 21.523h24.204l-10.218-21.523zM984.557 485.538v17.774h-69.864v-14.698l25.088-25.361q11.143-11.416 14.561-15.825 3.418-4.409 4.922-8.169 1.504-3.76 1.504-7.793 0-6.016-3.316-8.955-3.315-2.94-8.852-2.94-5.811 0-11.28 2.666-5.468 2.666-11.416 7.588l-11.484-13.603q7.383-6.289 12.236-8.887 4.854-2.598 10.596-3.999 5.742-1.401 12.852-1.401 9.365 0 16.542 3.418 7.178 3.418 11.143 9.57 3.965 6.152 3.965 14.082 0 6.904-2.427 12.954-2.427 6.05-7.519 12.407-5.093 6.358-17.945 18.115l-12.851 12.1v.957h43.545zm79.365-32.197q0 26.181-8.579 38.76-8.579 12.578-26.421 12.578-17.295 0-26.079-12.989-8.784-12.988-8.784-38.349 0-26.455 8.545-38.999 8.544-12.544 26.318-12.544 17.295 0 26.147 13.125 8.853 13.125 8.853 38.418zm-48.877 0q0 18.388 3.179 26.352 3.178 7.964 10.698 7.964 7.383 0 10.664-8.066 3.281-8.067 3.281-26.25 0-18.389-3.315-26.421-3.316-8.032-10.63-8.032-7.451 0-10.664 8.032t-3.213 26.421z"/></g></svg>