<svg xmlns="http://www.w3.org/2000/svg" style="isolation:isolate" viewBox="795.5 382.5 285 285"><defs><clipPath id="a"><path d="M795.5 382.5h285v285h-285z"/></clipPath></defs><g clip-path="url(#a)"><defs><filter id="b" width="400%" height="400%" x="-200%" y="-200%" color-interpolation-filters="sRGB" filterUnits="objectBoundingBox"><feGaussianBlur xmlns="http://www.w3.org/2000/svg" in="SourceGraphic" stdDeviation="8.587"/><feOffset xmlns="http://www.w3.org/2000/svg" dx="3" dy="4" result="pf_100_offsetBlur"/><feFlood xmlns="http://www.w3.org/2000/svg" flood-color="#000" flood-opacity=".2"/><feComposite xmlns="http://www.w3.org/2000/svg" in2="pf_100_offsetBlur" operator="in" result="pf_100_dropShadow"/><feBlend xmlns="http://www.w3.org/2000/svg" in="SourceGraphic" in2="pf_100_dropShadow"/></filter></defs><circle cx="935" cy="521" r="116.5" fill="#FFF" filter="url(#b)" vector-effect="non-scaling-stroke"/><path fill="#02BBFE" d="M945.943 466.5v6.812h11.814c1.479 0 2.832.909 3.333 2.32l4.059 11.305h-57.037l-3.261-6.812h10.146c1.859-.012 3.334-1.526 3.334-3.406 0-1.881-1.475-3.395-3.334-3.407h-26.09v6.813h8.479l4.856 10.219-9.422 19.857c-3.496-1.231-7.243-1.956-11.16-1.956-18.572 0-33.628 15.055-33.628 33.627 0 18.572 15.056 33.628 33.628 33.628 17.559 0 31.962-13.492 33.482-30.656h15.002a3.639 3.639 0 0 0 2.682-1.232l37.396-42.615 3.769 10.509c-11.382 5.389-19.278 16.936-19.278 30.366 0 18.572 15.055 33.628 33.627 33.628 18.572 0 33.628-15.056 33.628-33.628 0-18.572-15.056-33.627-33.628-33.627-2.772 0-5.467.382-8.044 1.014l-12.828-35.729c-1.516-4.225-5.49-7.03-9.929-7.03h-11.596zm-34.569 27.25h56.239l-36.527 41.6-19.712-41.6zm-5.363 4.421l18.843 39.788h-9.784c-1.236-10.588-7.435-19.693-16.162-24.931l7.103-14.857zm-24.351 17.031c2.842 0 5.548.481 8.117 1.305l-11.161 23.554c-.489 1.039-.394 2.211.217 3.188.605.971 1.683 1.595 2.827 1.595h26.525c-1.467 13.343-12.792 23.699-26.525 23.699-14.73 0-26.671-11.941-26.671-26.671 0-14.729 11.941-26.67 26.671-26.67zm106.68 0c14.73 0 26.671 11.941 26.671 26.67 0 14.73-11.941 26.671-26.671 26.671-14.729 0-26.67-11.941-26.67-26.671 0-10.406 6.019-19.376 14.712-23.771l8.77 24.496c.648 1.751 2.612 2.6 4.348 1.957 1.709-.636 2.537-2.537 1.957-4.276l-8.769-24.496c1.827-.396 3.707-.58 5.652-.58zm-92.403 4.131c6.407 4.067 10.952 10.795 12.103 18.626h-20.945l8.842-18.626z"/></g></svg>